<?xml version="1.0" standalone="no"?><!DOCTYPE svg PUBLIC "-//W3C//DTD SVG 1.1//EN" "http://www.w3.org/Graphics/SVG/1.1/DTD/svg11.dtd"><svg t="1512547374196" class="icon" style="" viewBox="0 0 1024 1024" version="1.1" xmlns="http://www.w3.org/2000/svg" p-id="1042" xmlns:xlink="http://www.w3.org/1999/xlink" width="200" height="200">
    <defs>
        <style type="text/css"></style>
    </defs>
    <path d="M533.333333 896c51.2 0 102.4-4.266667 132.266667-42.666667 17.066667-21.333333 34.133333-59.733333 34.133333-98.133333 0-106.666667-81.066667-234.666667-183.466666-234.666667-42.666667 0-85.333333 46.933333-110.933334 89.6-38.4 68.266667-34.133333 140.8-34.133333 192 0 38.4 34.133333 72.533333 59.733333 85.333334 21.333333 12.8 59.733333 8.533333 102.4 8.533333z" fill="#C92027" p-id="1043"></path>
    <path d="M785.066667 584.533333c-93.866667-187.733333-34.133333-247.466667-34.133334-247.466666v-4.266667h-4.266666s-132.266667 51.2-115.2 162.133333c-34.133333-29.866667-200.533333-183.466667-98.133334-358.4v-4.266666h-4.266666c-4.266667 0-55.466667 21.333333-93.866667 72.533333-38.4 46.933333-72.533333 132.266667-25.6 264.533333 17.066667 59.733333-17.066667 110.933333-34.133333 132.266667 4.266667-12.8 8.533333-38.4 8.533333-68.266667 0-42.666667-17.066667-98.133333-85.333333-136.533333h-4.266667v4.266667s25.6 110.933333-21.333333 162.133333c-38.4 42.666667-76.8 119.466667-55.466667 187.733333 17.066667 59.733333 72.533333 102.4 162.133333 132.266667 21.333333 8.533333 46.933333 12.8 68.266667 17.066667h4.266667V896c-46.933333-17.066667-93.866667-55.466667-59.733334-136.533333 34.133333-68.266667 25.6-102.4 21.333334-115.2 17.066667 8.533333 51.2 34.133333 42.666666 72.533333v4.266667h4.266667s106.666667-81.066667 59.733333-174.933334c21.333333 12.8 85.333333 55.466667 46.933334 153.6-12.8 42.666667 21.333333 72.533333 21.333333 76.8h4.266667v-4.266666c0-4.266667-25.6-64 25.6-98.133334-4.266667 17.066667-8.533333 55.466667 12.8 76.8 17.066667 17.066667 34.133333 51.2 29.866666 81.066667-4.266667 21.333333-17.066667 38.4-42.666666 55.466667v4.266666h4.266666c59.733333-17.066667 136.533333-55.466667 170.666667-123.733333 25.6-55.466667 21.333333-115.2-8.533333-183.466667z" fill="#FF5533" p-id="1044"></path>
</svg>